<?xml version="1.0" encoding="UTF-8"?>
<!DOCTYPE svg PUBLIC "-//W3C//DTD SVG 1.0//EN" "http://www.w3.org/TR/2001/REC-SVG-20010904/DTD/svg10.dtd">
<!-- Creator: CorelDRAW X8 -->
<svg xmlns="http://www.w3.org/2000/svg" xml:space="preserve" width="600px" height="600px" version="1.0" style="shape-rendering:geometricPrecision; text-rendering:geometricPrecision; image-rendering:optimizeQuality; fill-rule:evenodd; clip-rule:evenodd"
viewBox="0 0 600 600"
 xmlns:xlink="http://www.w3.org/1999/xlink">
 <defs>
  <style type="text/css">
   <![CDATA[
    .fil46 {fill:none}
    .fil0 {fill:#FEFEFE}
    .fil43 {fill:#C1C1C0}
    .fil40 {fill:#F7C200}
    .fil48 {fill:#F7C200}
    .fil42 {fill:#43906B}
    .fil49 {fill:#43906B}
    .fil15 {fill:#414A79}
    .fil7 {fill:#424877}
    .fil12 {fill:#424A76}
    .fil22 {fill:#434C7B}
    .fil37 {fill:#5F6382}
    .fil16 {fill:#6C645B}
    .fil38 {fill:#8799B7}
    .fil2 {fill:#8EA4BC}
    .fil5 {fill:#91A5BE}
    .fil33 {fill:#96929D}
    .fil18 {fill:#96AD5B}
    .fil3 {fill:#9EB7D2}
    .fil8 {fill:#A3BBD7}
    .fil27 {fill:#A4BB65}
    .fil28 {fill:#A6C3CD}
    .fil20 {fill:#A9C5CF}
    .fil9 {fill:#AAC368}
    .fil34 {fill:#B3ADAF}
    .fil4 {fill:#B92E3E}
    .fil35 {fill:#C4B5AC}
    .fil24 {fill:#C4E5F2}
    .fil32 {fill:#CBBDB9}
    .fil26 {fill:#CDBCB5}
    .fil31 {fill:#CED0D4}
    .fil19 {fill:#D0C1BA}
    .fil11 {fill:#D1C2BB}
    .fil25 {fill:#D4C9BC}
    .fil10 {fill:#D63547}
    .fil6 {fill:#D63649}
    .fil17 {fill:#D9CAC2}
    .fil1 {fill:#D9D2C9}
    .fil41 {fill:#DC1F1F}
    .fil47 {fill:#DC1F1F}
    .fil23 {fill:#E5D5CB}
    .fil29 {fill:#E6DFE1}
    .fil30 {fill:#E6E6E8}
    .fil36 {fill:#E8D6CD}
    .fil13 {fill:#ECDBD3}
    .fil14 {fill:#EEDDD2}
    .fil21 {fill:#F4E4D9}
    .fil45 {fill:#43906B;fill-rule:nonzero}
    .fil44 {fill:#44477C;fill-rule:nonzero}
    .fil39 {fill:#FEFEFE;fill-opacity:0.501961}
   ]]>
  </style>
   <clipPath id="id0">
    <path d="M0 0l600 0 0 600 -600 0 0 -600z"/>
   </clipPath>
 </defs>
 <g id="Capa_x0020_1">
  <metadata id="CorelCorpID_0Corel-Layer"/>
  <rect class="fil0" width="600" height="600"/>
  <g>
  </g>
  <g style="clip-path:url(#id0)">
   <g>
    <g id="_2267561378496">
     <g>
      <path class="fil1" d="M382 106c3,2 4,1 8,1 1,0 5,0 5,0 5,-1 2,1 3,-2 -1,-3 3,-2 -8,-2 -10,0 -7,-1 -8,3z"/>
      <path class="fil1" d="M423 105c1,2 -1,2 7,2 4,0 6,1 9,-1 -1,-5 -1,-3 -7,-3 -13,0 -7,0 -9,2z"/>
     </g>
     <g>
      <path class="fil2" d="M204 303l0 -7 23 0 0 7c2,-3 1,-9 1,-13l-25 0c0,6 -2,10 1,13z"/>
      <path class="fil2" d="M259 303l0 -7 23 0 0 7c3,-3 1,-6 1,-13l-25 0c0,4 -1,10 1,13z"/>
      <path class="fil2" d="M231 303l0 -7 23 0 1 7c2,-3 1,-6 1,-13l-26 0c0,4 -1,10 1,13z"/>
      <path class="fil2" d="M448 249l0 -12 8 1c2,4 1,6 1,11l4 -2c3,-13 -1,-17 -15,-14 0,4 -1,14 2,16z"/>
      <polygon class="fil2" points="217,369 224,369 224,360 218,360 "/>
     </g>
     <g>
      <path class="fil3" d="M315 233c-9,-1 -11,-1 -11,8 0,8 3,9 11,7l0 -15z"/>
      <polygon class="fil3" points="317,249 328,249 328,233 317,233 "/>
      <polygon class="fil3" points="343,249 354,249 353,233 343,233 "/>
      <polygon class="fil3" points="433,249 444,249 444,233 434,233 "/>
      <polygon class="fil3" points="369,249 380,249 379,233 369,233 "/>
      <polygon class="fil3" points="421,249 431,249 431,233 421,233 "/>
      <polygon class="fil3" points="330,249 341,248 341,233 330,233 "/>
      <polygon class="fil3" points="356,249 367,248 367,233 356,233 "/>
      <polygon class="fil3" points="395,249 405,249 405,233 395,233 "/>
      <polygon class="fil3" points="408,249 418,249 418,233 408,233 "/>
      <polygon class="fil3" points="382,249 393,249 392,233 382,233 "/>
     </g>
     <g>
      <path class="fil4" d="M437 149l6 0 0 -26 -6 0c-1,6 -1,21 0,26z"/>
      <path class="fil4" d="M396 149l6 0 0 -26 -6 0c-1,6 -1,21 0,26z"/>
      <polygon class="fil4" points="396,165 402,165 402,154 396,155 "/>
      <path class="fil4" d="M437 165l6 0 0 -11 -1 0c-2,2 -2,1 -6,1l1 10z"/>
     </g>
     <g>
      <path class="fil5" d="M287 303l0 -7 15 0 0 8 6 -1 0 -13 -22 0c0,4 -1,10 1,13z"/>
      <path class="fil5" d="M180 296l19 0 0 7c2,-3 1,-9 1,-13l-24 0 4 6z"/>
      <polygon class="fil5" points="302,320 308,320 308,306 302,306 "/>
     </g>
     <g>
      <polygon class="fil6" points="378,165 396,165 396,155 402,154 402,154 378,154 "/>
      <path class="fil6" d="M419 165l18 0 -1 -10c4,0 4,1 6,-1l-23 0 0 11z"/>
     </g>
     <g>
      <path class="fil7" d="M501 397c-5,0 -33,-2 -36,1 2,4 1,3 7,3l48 0c4,0 14,2 17,-2 -2,-3 -3,-2 -8,-2l-28 0z"/>
      <path class="fil7" d="M378 81c2,4 20,2 25,2 4,0 9,0 13,0 10,0 10,1 12,-2 -2,-4 0,-2 -12,-2l-34 0c-6,0 -3,0 -4,2z"/>
     </g>
     <g>
      <polygon class="fil8" points="258,319 283,320 283,306 258,306 "/>
      <polygon class="fil8" points="203,319 228,320 228,306 203,306 "/>
      <polygon class="fil8" points="230,319 256,320 256,306 230,306 "/>
      <path class="fil8" d="M181 319l19 1 0 -14c-3,0 -15,-1 -17,0 -5,1 -2,8 -2,13z"/>
      <polygon class="fil8" points="302,320 302,306 286,306 286,319 "/>
      <polygon class="fil8" points="231,303 255,303 254,296 231,296 "/>
      <polygon class="fil8" points="259,303 282,303 282,296 259,296 "/>
      <polygon class="fil8" points="204,303 227,303 227,296 204,296 "/>
      <path class="fil8" d="M199 303l0 -7 -19 0c0,1 1,3 1,4 1,5 -1,2 2,3l16 0z"/>
      <polygon class="fil8" points="287,303 302,304 302,296 287,296 "/>
      <path class="fil8" d="M448 249l9 0c0,-5 1,-7 -1,-11l-8 -1 0 12z"/>
     </g>
     <g>
      <path class="fil9" d="M184 396l-1 -4c-6,-4 -5,0 -11,-5 -5,-4 -8,-3 -13,-2 -5,1 -7,-2 -12,2 -3,2 -2,3 -3,5 -2,3 -3,2 -4,3l44 1z"/>
      <path class="fil9" d="M137 321c0,0 0,0 0,0z"/>
     </g>
     <g>
      <path class="fil10" d="M378 149l18 0c-1,-5 -1,-20 0,-26l-18 0 0 26z"/>
      <path class="fil10" d="M419 149l18 0c-1,-5 -1,-20 0,-26l-18 0 0 26z"/>
     </g>
     <g>
      <path class="fil11" d="M379 166l17 0 -1 49 -16 0 0 -49zm23 -1l-6 0 -18 0 0 51 24 1 0 -52z"/>
      <path class="fil11" d="M419 215c3,4 19,2 24,1l0 -51 -6 0 -18 0 0 1 17 0 1 49 -18 0z"/>
      <path class="fil11" d="M379 111l17 0 0 10 -8 1 -2 0 -7 0 0 -11zm-1 12l18 0 6 0 0 -13 -24 0 0 13z"/>
      <path class="fil11" d="M419 122l0 1 18 0 6 0 0 -13c-4,0 -8,0 -12,0 -6,0 -9,-1 -12,1l17 0 0 11 -17 0z"/>
     </g>
     <g>
      <path class="fil12" d="M311 397c-5,0 -17,-2 -18,2 2,4 33,2 40,2l105 0c5,0 16,2 18,-2 -4,-5 -71,-2 -82,-2l-63 0z"/>
      <path class="fil12" d="M204 411c-7,0 -25,-2 -27,2 2,3 0,2 6,2 29,1 66,0 96,0 11,0 11,1 13,-2 -3,-4 -21,-2 -28,-2l-60 0z"/>
      <path class="fil12" d="M336 415c14,0 20,2 21,-4 -4,-2 -18,0 -23,0 -5,0 -20,-3 -21,2 3,4 17,2 23,2z"/>
      <path class="fil12" d="M231 98c2,3 4,2 9,2 5,0 6,2 8,-3 -3,-2 -14,-1 -14,-1 -5,1 -1,0 -3,2z"/>
     </g>
     <g>
      <polygon class="fil13" points="379,215 395,215 396,166 379,166 "/>
      <polygon class="fil13" points="379,122 386,122 388,122 396,121 396,111 379,111 "/>
     </g>
     <g>
      <polygon class="fil14" points="419,215 437,215 436,166 419,166 "/>
      <polygon class="fil14" points="419,122 436,122 436,111 419,111 "/>
     </g>
     <g>
      <path class="fil15" d="M375 64c5,-5 6,-10 17,-9 7,1 11,6 13,12 6,1 10,-1 13,5l-58 0c1,-9 8,-9 15,-8zm-19 12c5,1 74,0 89,0 6,0 26,3 29,-2 -3,-4 -13,-2 -19,-2 -7,0 -14,0 -21,0 -15,0 -7,1 -15,-6 -7,-6 -8,1 -13,-7 -6,-10 -21,-11 -29,-4 -9,8 -7,1 -15,6 -5,3 -8,10 -6,15z"/>
      <path class="fil15" d="M147 84c1,-6 2,-10 8,-12 8,-2 9,2 14,5 10,-4 15,1 16,11 5,1 11,2 12,8l-65 0c-2,-12 9,-11 15,-12zm-4 -4c-8,2 -20,6 -15,20 4,1 97,1 100,-1 -1,-8 -22,1 -27,-5 -3,-5 -2,-5 -8,-8 -8,-4 -5,-14 -19,-14 -9,0 -3,-1 -11,-4 -10,-4 -16,3 -20,12z"/>
      <path class="fil15" d="M133 107c2,4 3,2 14,2 11,0 12,2 14,-2 -2,-4 -3,-2 -14,-2 -3,0 -5,0 -8,0 -6,0 -4,-1 -6,2z"/>
      <path class="fil15" d="M170 107c1,3 -2,2 9,2 12,0 9,1 11,-2 -1,-3 1,-2 -4,-2l-12 0c-6,0 -3,1 -4,2z"/>
      <path class="fil15" d="M479 74c1,3 -2,2 3,2l10 0c4,0 2,1 3,-2 -1,-2 2,-2 -8,-2 -10,0 -6,0 -8,2z"/>
     </g>
     <g>
      <path class="fil16" d="M358 373c2,-11 0,-37 0,-50 0,-7 5,-44 -5,-43 -10,0 -6,36 -6,43 0,14 -1,37 1,50l10 0z"/>
      <path class="fil16" d="M373 372l10 1c1,-15 0,-35 0,-50 0,-7 5,-42 -5,-44 -10,-1 -6,36 -6,44 0,10 -1,41 1,49z"/>
      <path class="fil16" d="M407 372c3,-12 1,-35 1,-49 0,-7 4,-42 -5,-44 -8,-1 -6,14 -6,20 0,8 0,16 0,24 0,12 -1,40 1,50l9 -1z"/>
     </g>
     <g>
      <path class="fil17" d="M437 382c6,0 20,3 19,-6l-196 0c-5,0 -16,-2 -18,3 2,5 13,3 18,3l177 0z"/>
      <path class="fil17" d="M168 376c9,8 7,6 20,6 8,0 16,0 25,0l0 -6 -45 0z"/>
     </g>
     <g>
      <g>
       <path class="fil18" d="M137 321c0,0 0,0 0,0l0 0zm-3 3c2,10 5,18 17,17 7,-1 7,-4 11,-7 3,-3 7,-1 12,-6 7,-7 3,-15 3,-19 0,-7 6,-20 -19,-20 -4,-6 -7,-11 -17,-9 -10,2 -9,10 -12,15 -3,4 -11,5 -9,16 2,9 8,10 14,13z"/>
      </g>
      <path class="fil18" d="M184 396l-44 -1c1,-1 2,0 4,-3 1,-2 0,-3 3,-5 5,-4 7,-1 12,-2 5,-1 8,-2 13,2 6,5 5,1 11,5 -2,-8 -5,-5 -10,-7 -4,-2 -4,-7 -11,-6 -4,0 -4,2 -7,2 -2,0 -12,-4 -12,8 -5,1 -9,3 -8,8l49 -1z"/>
     </g>
     <g id="_2267561396256">
      <path class="fil19" d="M345 297c-4,-1 -14,-11 -18,-15 -4,-3 -17,-13 -15,-16l-3 1c-1,15 4,39 1,52 -3,17 -2,37 -1,55l36 0 0 -77z"/>
      <path class="fil19" d="M370 320c-10,-3 -8,-12 -8,-26 0,-10 1,-8 -1,-12l0 91 9 0 0 -53z"/>
     </g>
     <g id="_2267561392128">
      <path class="fil20" d="M130 283c12,-7 13,-10 27,-2l0 -14c-5,-2 -6,3 -5,-8l40 0 0 -32c-2,-5 -6,-1 -4,-10l20 0c5,-7 -6,-7 16,-7 8,0 16,0 24,0 4,7 -4,7 13,7l59 0 0 -30 -12 -1 -4 -24c-4,1 -13,-6 -32,2l-2 40c-7,-2 3,-4 -11,-5 -16,-1 -29,-5 -36,4l-14 2c0,-14 -3,-16 -18,-15 -9,13 -6,46 -9,50 -3,0 -2,-3 -2,-7 -11,-3 -3,-4 -17,-6 -15,-2 -7,-2 -11,6l-3 -6 -19 3 0 53z"/>
      <path class="fil20" d="M554 381l-5 -1 -28 0 -1 -81 -33 -4 0 -40 -17 -4 0 111c6,-2 8,0 14,-2 7,-1 9,0 14,4 4,3 8,1 11,5 2,3 3,8 6,12l39 0z"/>
      <path class="fil20" d="M49 380l-3 1c24,-1 54,0 79,0 13,0 12,1 22,-4l0 -32c-12,-8 -12,-3 -16,-19 -13,-4 -15,-12 -13,-25l-25 1 0 78 -44 0z"/>
      <path class="fil20" d="M151 377c4,1 2,1 6,0l0 -35 -6 3 0 32z"/>
     </g>
     <g id="_2267561389088">
      <path class="fil21" d="M213 356c-2,-3 -1,-2 -5,-3 -2,0 -1,1 -5,0l1 -6 47 0 0 5c-6,3 -7,-1 -9,4l0 18 64 0 0 -52 -125 0c-3,4 -3,7 -8,10 -13,9 -13,-5 -13,42l53 -1 0 -17z"/>
      <path class="fil21" d="M306 271l-146 0 0 14c12,1 21,2 35,2 26,0 93,2 111,0l0 -16z"/>
     </g>
     <g id="_2267561389600">
      <path class="fil22" d="M183 392l1 4 -49 1c-1,-5 3,-7 8,-8 0,-12 10,-8 12,-8 3,0 3,-2 7,-2 7,-1 7,4 11,6 5,2 8,-1 10,7zm46 -22l12 1 0 12 -12 0 0 -13zm-15 -14l12 0 0 27 -12 0 0 -27zm253 18c3,-15 8,-7 16,-10 7,-2 8,-1 13,3 5,4 2,1 7,3 4,1 7,7 7,11l-51 0c1,-5 4,-6 8,-7zm-30 8l-177 0c-5,0 -16,2 -18,-3 2,-5 13,-3 18,-3l196 0c1,9 -13,6 -19,6zm-269 -6l45 0 0 6c-9,0 -17,0 -25,0 -13,0 -11,2 -20,-6zm-17 -31l6 -3 0 35c-4,1 -2,1 -6,0l0 -32zm207 28l-10 0c-2,-13 -1,-36 -1,-50 0,-7 -4,-43 6,-43 10,-1 5,36 5,43 0,13 2,39 0,50zm15 -1c-2,-8 -1,-39 -1,-49 0,-8 -4,-45 6,-44 10,2 5,37 5,44 0,15 1,35 0,50l-10 -1zm34 0l-9 1c-2,-10 -1,-38 -1,-50 0,-8 0,-16 0,-24 0,-6 -2,-21 6,-20 9,2 5,37 5,44 0,14 2,37 -1,49zm-175 -12l8 0 0 9 -8 1 0 -10zm10 -4l-14 0c1,4 1,9 1,13 0,5 1,12 -2,15l0 -28 -14 0 0 17 -53 1c0,-47 0,-33 13,-42 5,-3 5,-6 8,-10l125 0 0 52 -64 0 0 -18zm60 -50l6 0 0 14 -6 0 -16 -1 0 -13 16 0zm-44 0l25 0 0 14 -25 -1 0 -13zm-28 0l26 0 0 14 -26 -1 0 -13zm-27 0l25 0 0 14 -25 -1 0 -13zm-22 13c0,-5 -3,-12 2,-13 2,-1 14,0 17,0l0 14 -19 -1zm-47 5c-6,-3 -12,-4 -14,-13 -2,-11 6,-12 9,-16 3,-5 2,-13 12,-15 10,-2 13,3 17,9 25,0 19,13 19,20 0,4 4,12 -3,19 -5,5 -9,3 -12,6 -4,3 -4,6 -11,7 -12,1 -15,-7 -17,-17zm168 -20l-15 -1c-2,-3 -1,-9 -1,-13l22 0 0 13 -6 1zm-20 -1l-23 0c-2,-3 -1,-9 -1,-13l25 0c0,7 2,10 -1,13zm-27 0l-24 0c-2,-3 -1,-9 -1,-13l26 0c0,7 1,10 -1,13zm-28 0l-23 0c-3,-3 -1,-7 -1,-13l25 0c0,4 1,10 -1,13zm-28 0l-16 0c-3,-1 -1,2 -2,-3 0,-1 -1,-3 -1,-4l-4 -6 24 0c0,4 1,10 -1,13zm-39 -32l0 -5 146 0 0 5 0 16c-18,2 -85,0 -111,0 -14,0 -23,-1 -35,-2l0 -14zm2 -7c-4,0 -6,1 -8,-2 4,-3 32,-1 40,-1l98 0c9,0 16,-2 17,2 -3,2 -122,0 -147,1zm208 56l0 53 -9 0 0 -91c-3,-5 -8,-7 -13,-4 -4,4 -3,14 -3,19l0 77 -36 0c-1,-18 -2,-38 1,-55 3,-13 -2,-37 -1,-52l3 -1 0 -7 -117 0 0 -34 272 0c2,32 0,69 0,102 0,11 4,41 -6,46 -4,2 -45,1 -50,0 0,-17 0,-34 0,-51 0,-10 5,-45 -8,-45 -13,0 -8,34 -8,44 0,17 1,35 0,52l-9 0c0,-26 0,-52 0,-77 0,-6 1,-14 -3,-17 -4,-3 -10,-3 -12,2 -2,4 -1,32 -1,39zm-147 -98c-6,0 -31,3 -33,-2 4,-2 183,-1 213,-1 7,0 67,-1 68,2 -3,3 -183,1 -212,1 -12,0 -24,0 -36,0zm196 -56l0 -1 0 -11 0 -5 0 -26 0 -1 0 -11c3,-2 6,-1 12,-1 4,0 8,0 12,0l0 13 0 26 0 5 0 11 0 51c-5,1 -21,3 -24,-1l0 -49zm-41 -1l0 -11 0 -5 0 -26 0 -13 24 0 0 13 0 26 0 5 0 0 0 11 0 52 -24 -1 0 -51zm-149 52c-16,-1 -17,2 -17,-4 3,-2 31,-2 34,0 0,5 -1,4 -7,4 -3,-1 -7,0 -10,0zm201 -110c-8,0 -6,0 -7,-2 2,-2 -4,-2 9,-2 6,0 6,-2 7,3 -3,2 -5,1 -9,1zm-40 0c-4,0 -5,1 -8,-1 1,-4 -2,-3 8,-3 11,0 7,-1 8,2 -1,3 2,1 -3,2 0,0 -4,0 -5,0zm-14 0l-1 109 -55 1 -59 0c-17,0 -9,0 -13,-7 -8,0 -16,0 -24,0 -22,0 -11,0 -16,7l-20 0c-2,9 2,5 4,10l0 32 -40 0c-1,11 0,6 5,8l0 14c-14,-8 -15,-5 -27,2 -4,9 -5,11 -12,18 -2,13 0,21 13,25 4,16 4,11 16,19l0 32c-10,5 -9,4 -22,4 -25,0 -55,-1 -79,0l-1 4 94 0c-1,3 -4,3 -7,8 -5,9 -5,-1 -9,6 3,5 68,2 78,2 11,0 75,3 78,-2 -2,-4 -37,-2 -44,-2 -15,0 -31,0 -46,0l-4 -12 370 0 -1 -4 -39 0c-3,-4 -4,-9 -6,-12 -3,-4 -7,-2 -11,-5 -5,-4 -7,-5 -14,-4 -6,2 -8,0 -14,2l0 -111c0,-6 0,-13 0,-20 0,-15 6,2 4,-14l-28 -1 0 -108 -4 -1 -1 -7 -19 0c-3,4 0,3 -2,6 -2,3 0,-1 -4,3l0 50 0 8 0 50 -11 -1 0 -108 -4 -2 0 -6 -21 0 -1 7 -3 0z"/>
      <path class="fil22" d="M434 233l10 0 0 16 -11 0 1 -16zm-13 0l10 0 0 16 -10 0 0 -16zm-13 0l10 0 0 16 -10 0 0 -16zm-13 0l10 0 0 16 -10 0 0 -16zm-13 0l10 0 1 16 -11 0 0 -16zm-13 0l10 0 1 16 -11 0 0 -16zm-13 0l11 0 0 15 -11 1 0 -16zm-13 0l10 0 1 16 -11 0 0 -16zm-13 0l11 0 0 15 -11 1 0 -16zm-13 0l11 0 0 16 -11 0 0 -16zm140 16l-9 0c-3,-2 -2,-12 -2,-16 14,-3 18,1 15,14l-4 2zm-142 -16l0 15c-8,2 -11,1 -11,-7 0,-9 2,-9 11,-8zm-12 16c6,4 68,2 79,2 13,0 74,3 80,-2 3,-6 4,-17 -5,-18 -6,-1 -18,-1 -25,-1 -16,0 -33,0 -50,0l-74 1c-9,1 -7,13 -5,18z"/>
     </g>
     <g id="_2267561387552">
      <path class="fil23" d="M303 249c-2,-5 -4,-17 5,-18l74 -1c17,0 34,0 50,0 7,0 19,0 25,1 9,1 8,12 5,18 -6,5 -67,2 -80,2 -11,0 -73,2 -79,-2zm9 17c-2,3 11,13 15,16 4,4 14,14 18,15 0,-5 -1,-15 3,-19 5,-3 10,-1 13,4 2,4 1,2 1,12 0,14 -2,23 8,26 0,-7 -1,-35 1,-39 2,-5 8,-5 12,-2 4,3 3,11 3,17 0,25 0,51 0,77l9 0c1,-17 0,-35 0,-52 0,-10 -5,-44 8,-44 13,0 8,35 8,45 0,17 0,34 0,51 5,1 46,2 50,0 10,-5 6,-35 6,-46 0,-33 2,-70 0,-102l-272 0 0 34 117 0 0 7z"/>
      <polygon class="fil23" points="419,154 442,154 443,154 443,149 437,149 419,149 "/>
      <polygon class="fil23" points="378,154 402,154 402,149 396,149 378,149 "/>
     </g>
     <g id="_2267561385472">
      <path class="fil24" d="M49 380l44 0 0 -78 25 -1c7,-7 8,-9 12,-18l0 -53 19 -3 3 6c4,-8 -4,-8 11,-6 14,2 6,3 17,6 0,4 -1,7 2,7 3,-4 0,-37 9,-50 15,-1 18,1 18,15l14 -2c7,-9 20,-5 36,-4 14,1 4,3 11,5l2 -40c19,-8 28,-1 32,-2l4 24 12 1 0 30 55 -1 1 -109 -2 34c-7,0 -21,-5 -30,-7 -33,-6 -66,-5 -100,2 -111,24 -196,128 -195,244z"/>
      <path class="fil24" d="M470 251l17 4 0 40 33 4 1 81 28 0c1,-40 -11,-86 -31,-121 -24,-41 -38,-51 -72,-81l0 -70 0 108 28 1c2,16 -4,-1 -4,14 0,7 0,14 0,20z"/>
      <polygon class="fil24" points="416,167 416,159 406,154 406,166 "/>
     </g>
     <path class="fil25" d="M190 220c2,5 27,2 33,2 12,0 24,0 36,0 29,0 209,2 212,-1 -1,-3 -61,-2 -68,-2 -30,0 -209,-1 -213,1z"/>
     <polygon class="fil26" points="160,271 306,271 306,266 160,266 "/>
     <path class="fil27" d="M467 374c-4,1 -7,2 -8,7l51 0c0,-4 -3,-10 -7,-11 -5,-2 -2,1 -7,-3 -5,-4 -6,-5 -13,-3 -8,3 -13,-5 -16,10z"/>
     <polygon class="fil28" points="416,167 406,166 406,154 406,107 401,106 405,108 405,216 416,217 "/>
     <path class="fil29" d="M375 64c-7,-1 -14,-1 -15,8l58 0c-3,-6 -7,-4 -13,-5 -2,-6 -6,-11 -13,-12 -11,-1 -12,4 -17,9z"/>
     <path class="fil30" d="M191 94c-8,-2 -5,-2 -9,-8 -4,-6 -8,-3 -14,-5 -5,-1 -6,-5 -14,-2 -4,2 -5,5 -7,10 -4,0 -9,1 -12,5l56 0z"/>
     <path class="fil31" d="M135 94c3,-4 8,-5 12,-5 2,-5 3,-8 7,-10 8,-3 9,1 14,2 6,2 10,-1 14,5 4,6 1,6 9,8l-56 0zm12 -10c-6,1 -17,0 -15,12l65 0c-1,-6 -7,-7 -12,-8 -1,-10 -6,-15 -16,-11 -5,-3 -6,-7 -14,-5 -6,2 -7,6 -8,12z"/>
     <path class="fil32" d="M154 262c2,3 4,2 8,2 25,-1 144,1 147,-1 -1,-4 -8,-2 -17,-2l-98 0c-8,0 -36,-2 -40,1z"/>
     <path class="fil33" d="M213 356l14 0 0 28c3,-3 2,-10 2,-15 0,-4 0,-9 -1,-13l14 0c2,-5 3,-1 9,-4l0 -5 -47 0 -1 6c4,1 3,0 5,0 4,1 3,0 5,3z"/>
     <path class="fil34" d="M215 357l11 0 0 14 -12 0 1 -14zm-1 26l12 0 0 -27 -12 0 0 27z"/>
     <polygon class="fil35" points="229,383 241,383 241,371 229,370 "/>
     <path class="fil36" d="M212 213c0,6 1,3 17,4 3,0 7,-1 10,0 6,0 7,1 7,-4 -3,-2 -31,-2 -34,0z"/>
     <path class="fil37" d="M218 360l6 0 0 9 -7 0 1 -9zm-4 11l12 0 0 -14 -11 0 -1 14z"/>
     <polygon class="fil38" points="232,370 240,369 240,360 232,360 "/>
    </g>
    <polygon class="fil39" points="0,0 600,0 600,600 0,600 "/>
    <path class="fil40" d="M370 -55c-21,23 -18,50 1,65 18,16 53,20 82,31 29,11 53,28 65,47 11,20 10,42 19,66 8,24 25,50 50,56 24,6 56,-7 77,-33 21,-25 30,-63 24,-108 -6,-45 -27,-98 -65,-130 -37,-32 -91,-43 -140,-39 -49,3 -93,22 -113,45z"/>
    <path class="fil41" d="M356 652c-14,-27 -5,-53 17,-63 21,-11 56,-7 86,-11 31,-3 59,-14 74,-31 16,-16 21,-38 34,-59 14,-22 37,-43 62,-43 26,0 54,20 68,50 14,29 14,68 -2,111 -17,42 -50,88 -94,111 -43,22 -98,21 -145,6 -47,-15 -85,-44 -100,-71z"/>
    <path class="fil42" d="M269 674c11,-29 -1,-53 -24,-61 -23,-8 -57,0 -88,0 -31,1 -59,-7 -77,-21 -18,-14 -25,-35 -41,-55 -16,-19 -42,-37 -67,-34 -25,2 -50,26 -61,57 -10,32 -5,70 16,110 22,40 60,82 106,99 47,16 101,8 146,-13 44,-20 79,-54 90,-82z"/>
    <path class="fil43" d="M247 -53c12,29 -1,52 -23,60 -23,8 -57,0 -88,0 -31,0 -60,7 -77,21 -18,15 -25,36 -41,55 -16,20 -42,38 -67,35 -25,-3 -51,-27 -61,-58 -10,-31 -6,-70 16,-110 21,-40 60,-81 106,-98 47,-17 101,-9 146,12 44,21 78,54 89,83z"/>
    <polygon class="fil44" points="68,445 68,451 52,451 52,458 67,458 67,464 52,464 52,471 69,471 69,477 45,477 45,445 "/>
    <polygon id="1" class="fil44" points="104,457 95,474 91,474 82,457 82,477 75,477 75,445 85,445 93,463 101,445 111,445 111,477 104,477 "/>
    <path id="2" class="fil44" d="M130 445c5,0 9,1 11,3 2,2 3,5 3,9 0,4 -1,7 -3,8 -2,2 -6,3 -11,3l-4 0 0 9 -7 0 0 -32 11 0zm1 17c2,0 4,-1 5,-1 1,-1 1,-3 1,-5 0,-2 -1,-3 -2,-4 -1,0 -3,-1 -5,-1l-4 0 0 11 5 0z"/>
    <path id="3" class="fil44" d="M176 456c0,5 -2,8 -6,10l8 11 -9 0 -7 -10 -5 0 0 10 -7 0 0 -32 12 0c5,0 9,1 11,3 2,1 3,4 3,8zm-14 5c3,0 4,-1 5,-2 1,0 2,-2 2,-3 0,-2 -1,-3 -2,-4 -1,0 -2,-1 -5,-1l-5 0 0 10 5 0z"/>
    <polygon id="4" class="fil44" points="206,445 206,451 190,451 190,458 205,458 205,464 190,464 190,471 207,471 207,477 183,477 183,445 "/>
    <path id="5" class="fil44" d="M224 451c-2,0 -3,0 -3,0 -1,1 -1,2 -1,3 0,1 0,1 1,2 1,0 3,1 6,2 3,1 5,2 7,3 2,2 2,4 2,7 0,3 -1,5 -3,7 -2,2 -5,2 -8,2 -5,0 -10,-1 -14,-5l4 -5c4,3 7,4 10,4 1,0 2,0 3,-1 1,0 1,-1 1,-2 0,-1 0,-2 -1,-2 -1,-1 -3,-1 -5,-2 -4,-1 -6,-2 -8,-3 -2,-2 -3,-4 -3,-7 0,-3 1,-6 4,-7 2,-2 5,-3 8,-3 2,0 4,1 6,1 2,1 4,2 6,4l-4 5c-3,-2 -5,-3 -8,-3z"/>
    <path id="6" class="fil44" d="M265 477l-3 -7 -13 0 -3 7 -8 0 14 -32 7 0 14 32 -8 0zm-10 -22l-4 9 8 0 -4 -9z"/>
    <path id="7" class="fil44" d="M311 477l-3 -7 -13 0 -3 7 -8 0 14 -32 7 0 14 32 -8 0zm-9 -22l-5 9 9 0 -4 -9z"/>
    <path id="8" class="fil44" d="M334 445c5,0 8,1 11,3 2,2 3,5 3,9 0,4 -1,7 -4,8 -2,2 -5,3 -10,3l-4 0 0 9 -7 0 0 -32 11 0zm0 17c3,0 4,-1 5,-1 1,-1 2,-3 2,-5 0,-2 -1,-3 -2,-4 -1,0 -3,-1 -5,-1l-4 0 0 11 4 0z"/>
    <path id="9" class="fil44" d="M380 456c0,5 -3,8 -7,10l9 11 -9 0 -7 -10 -5 0 0 10 -7 0 0 -32 12 0c5,0 8,1 10,3 2,1 4,4 4,8zm-14 5c2,0 4,-1 5,-2 1,0 1,-2 1,-3 0,-2 0,-3 -1,-4 -1,0 -3,-1 -5,-1l-5 0 0 10 5 0z"/>
    <path id="10" class="fil44" d="M411 461c0,-3 -1,-5 -3,-7 -2,-2 -4,-3 -6,-3 -3,0 -5,1 -7,3 -2,2 -3,4 -3,7 0,3 1,5 3,7 2,2 4,3 7,3 2,0 4,-1 6,-3 2,-2 3,-4 3,-7zm2 12c-3,3 -7,4 -11,4 -5,0 -9,-1 -12,-4 -4,-4 -5,-7 -5,-12 0,-5 1,-9 5,-12 3,-3 7,-5 12,-5 4,0 8,2 11,5 4,3 5,7 5,12 0,5 -1,8 -5,12z"/>
    <path id="11" class="fil44" d="M438 477l-14 0 0 -32 13 0c2,0 4,0 5,1 2,0 3,1 4,2 1,2 2,3 2,6 0,2 -1,4 -2,5 -1,1 -1,1 -1,1 -1,0 -1,0 -2,0 2,1 4,2 5,3 1,1 2,3 2,5 0,2 -1,4 -2,6 -2,2 -5,3 -10,3zm-6 -19l3 0c2,0 3,0 4,-1 1,0 2,-1 2,-2 0,-2 -1,-3 -2,-3 0,-1 -2,-1 -4,-1l-3 0 0 7zm0 13l4 0c2,0 4,0 5,-1 1,0 2,-1 2,-3 0,-1 -1,-2 -2,-3 -1,0 -3,0 -5,0l-4 0 0 7z"/>
    <path id="12" class="fil44" d="M478 477l-3 -7 -13 0 -3 7 -8 0 14 -32 7 0 14 32 -8 0zm-9 -22l-4 9 8 0 -4 -9z"/>
    <path id="13" class="fil44" d="M501 445c6,0 10,1 13,4 3,3 5,7 5,12 0,5 -2,9 -5,12 -3,3 -7,4 -13,4l-11 0 0 -32 11 0zm0 26c4,0 6,-1 8,-3 2,-1 3,-4 3,-7 0,-3 -1,-5 -3,-7 -2,-2 -4,-3 -8,-3l-4 0 0 20 4 0z"/>
    <path id="14" class="fil44" d="M547 477l-3 -7 -13 0 -3 7 -8 0 14 -32 7 0 14 32 -8 0zm-10 -22l-4 9 8 0 -4 -9z"/>
    <polygon id="15" class="fil45" points="138,500 138,517 134,517 134,500 128,500 128,496 144,496 144,500 "/>
    <polygon id="16" class="fil45" points="147,496 152,496 152,517 147,517 "/>
    <polygon id="17" class="fil45" points="172,496 172,500 162,500 162,505 171,505 171,509 162,509 162,513 172,513 172,517 157,517 157,496 "/>
    <polygon id="18" class="fil45" points="190,496 195,496 195,517 190,517 181,504 181,517 176,517 176,496 180,496 190,510 "/>
    <polygon id="19" class="fil45" points="215,496 215,500 205,500 205,505 214,505 214,509 205,509 205,513 215,513 215,517 200,517 200,496 "/>
    <path id="20" class="fil45" d="M232 512c1,0 2,1 3,1 1,0 2,-1 3,-1 1,-1 1,-3 1,-4l0 -12 5 0 0 12c0,3 -1,5 -3,7 -1,1 -3,2 -6,2 -2,0 -4,-1 -6,-2 -2,-2 -3,-4 -3,-7l0 -12 5 0 0 12c0,1 0,3 1,4z"/>
    <polygon id="21" class="fil45" points="263,496 267,496 267,517 263,517 253,504 253,517 249,517 249,496 253,496 263,510 "/>
    <path id="22" class="fil45" d="M287 496c3,0 6,1 7,2 2,1 2,3 2,6 0,2 0,4 -2,5 -1,2 -4,2 -7,2l-2 0 0 6 -5 0 0 -21 7 0zm1 11c1,0 2,0 3,-1 0,0 1,-1 1,-2 0,-2 -1,-2 -1,-3 -1,0 -2,-1 -4,-1l-2 0 0 7 3 0z"/>
    <path id="23" class="fil45" d="M316 503c0,3 -1,6 -3,7l5 7 -6 0 -4 -7 -4 0 0 7 -4 0 0 -21 8 0c3,0 5,1 6,2 2,1 2,3 2,5zm-8 3c1,0 2,0 3,0 1,-1 1,-2 1,-3 0,-1 0,-2 -1,-2 -1,0 -2,-1 -3,-1l-4 0 0 6 4 0z"/>
    <path id="24" class="fil45" d="M337 507c0,-2 -1,-4 -2,-5 -1,-1 -3,-2 -5,-2 -1,0 -3,1 -4,2 -1,1 -2,3 -2,5 0,1 1,3 2,4 1,1 3,2 4,2 2,0 4,-1 5,-2 1,-1 2,-3 2,-4zm1 7c-2,2 -5,3 -8,3 -3,0 -5,-1 -7,-3 -2,-2 -3,-5 -3,-8 0,-3 1,-5 3,-7 2,-2 4,-3 7,-3 3,0 6,1 8,3 2,2 3,4 3,7 0,3 -1,6 -3,8z"/>
    <polygon id="25" class="fil45" points="353,500 353,517 349,517 349,500 343,500 343,496 359,496 359,500 "/>
    <path id="26" class="fil45" d="M377 507c0,-2 0,-4 -2,-5 -1,-1 -2,-2 -4,-2 -2,0 -3,1 -4,2 -1,1 -2,3 -2,5 0,1 1,3 2,4 1,1 2,2 4,2 2,0 3,-1 4,-2 2,-1 2,-3 2,-4zm2 7c-2,2 -5,3 -8,3 -3,0 -5,-1 -7,-3 -3,-2 -4,-5 -4,-8 0,-3 1,-5 4,-7 2,-2 4,-3 7,-3 3,0 6,1 8,3 2,2 3,4 3,7 0,3 -1,6 -3,8z"/>
    <path id="27" class="fil45" d="M395 513c2,0 4,-1 6,-3l2 3c-2,3 -5,4 -8,4 -3,0 -5,-1 -7,-3 -2,-2 -4,-4 -4,-7 0,-3 2,-6 4,-8 2,-2 4,-3 7,-3 4,0 6,1 9,4l-3 3c-2,-2 -3,-3 -6,-3 -1,0 -3,1 -4,2 -1,1 -2,3 -2,5 0,1 1,3 2,4 1,1 2,2 4,2z"/>
    <path id="28" class="fil45" d="M422 507c0,-2 0,-4 -2,-5 -1,-1 -2,-2 -4,-2 -2,0 -3,1 -4,2 -1,1 -2,3 -2,5 0,1 1,3 2,4 1,1 2,2 4,2 2,0 3,-1 4,-2 2,-1 2,-3 2,-4zm2 7c-2,2 -5,3 -8,3 -3,0 -5,-1 -7,-3 -3,-2 -4,-5 -4,-8 0,-3 1,-5 4,-7 2,-2 4,-3 7,-3 3,0 6,1 8,3 2,2 3,4 3,7 0,3 -1,6 -3,8z"/>
    <polygon id="29" class="fil45" points="431,517 431,496 435,496 435,513 444,513 444,517 "/>
    <path id="30" class="fil45" d="M462 507c0,-2 0,-4 -1,-5 -2,-1 -3,-2 -5,-2 -1,0 -3,1 -4,2 -1,1 -2,3 -2,5 0,1 1,3 2,4 1,1 3,2 4,2 2,0 3,-1 5,-2 1,-1 1,-3 1,-4zm2 7c-2,2 -5,3 -8,3 -3,0 -5,-1 -7,-3 -2,-2 -3,-5 -3,-8 0,-3 1,-5 3,-7 2,-2 4,-3 7,-3 3,0 6,1 8,3 2,2 3,4 3,7 0,3 -1,6 -3,8z"/>
    <path id="31" class="fil45" d="M167 532c4,0 6,1 8,3 2,1 3,4 3,7 0,3 -1,6 -3,8 -1,1 -4,2 -8,2l-7 0 0 -20 7 0zm0 16c2,0 4,0 5,-1 1,-1 2,-3 2,-5 0,-2 -1,-3 -2,-4 -1,-2 -3,-2 -5,-2l-3 0 0 12 3 0z"/>
    <polygon id="32" class="fil45" points="197,532 197,536 187,536 187,540 196,540 196,544 187,544 187,548 197,548 197,552 182,552 182,532 "/>
    <path id="33" class="fil45" d="M218 552l-9 0 0 -20 8 0c1,0 2,0 3,0 1,1 2,1 3,2 1,1 1,2 1,3 0,2 0,3 -1,4 -1,0 -1,0 -1,0 0,1 -1,1 -1,1 1,0 2,1 3,1 1,1 1,2 1,4 0,1 0,2 -1,3 -1,2 -3,2 -6,2zm-4 -12l2 0c1,0 2,0 3,0 0,0 0,-1 0,-2 0,-1 0,-1 0,-2 -1,0 -2,0 -3,0l-2 0 0 4zm0 9l3 0c1,0 2,-1 3,-1 0,0 1,-1 1,-2 0,-1 -1,-1 -1,-2 -1,0 -2,0 -4,0l-2 0 0 5z"/>
    <polygon id="34" class="fil45" points="229,532 234,532 234,552 229,552 "/>
    <path id="35" class="fil45" d="M254 542c0,-2 0,-3 -2,-5 -1,-1 -2,-2 -4,-2 -2,0 -3,1 -4,2 -1,2 -2,3 -2,5 0,2 1,3 2,5 1,1 2,2 4,2 2,0 3,-1 4,-2 2,-2 2,-3 2,-5zm2 8c-2,2 -5,3 -8,3 -3,0 -5,-1 -7,-3 -2,-2 -4,-5 -4,-8 0,-3 2,-5 4,-7 2,-2 4,-3 7,-3 3,0 6,1 8,3 2,2 3,4 3,7 0,3 -1,6 -3,8z"/>
    <path id="36" class="fil45" d="M269 536c-1,0 -1,0 -2,0 0,0 0,1 0,1 0,1 0,2 0,2 1,0 2,1 4,1 2,1 4,1 5,2 1,1 1,3 1,4 0,2 0,4 -2,5 -1,1 -3,2 -5,2 -3,0 -6,-2 -9,-4l3 -3c2,2 4,3 6,3 1,0 1,-1 2,-1 0,0 1,-1 1,-1 0,-1 -1,-2 -1,-2 -1,0 -2,-1 -3,-1 -3,-1 -4,-1 -5,-2 -1,-1 -2,-2 -2,-4 0,-2 1,-4 2,-5 1,-1 3,-1 5,-1 2,0 3,0 4,0 2,1 3,1 4,2l-2 4c-2,-2 -4,-2 -6,-2z"/>
    <polygon id="37" class="fil45" points="296,532 296,536 286,536 286,540 295,540 295,544 286,544 286,548 296,548 296,552 281,552 281,532 "/>
    <path id="38" class="fil45" d="M313 542l5 0 0 7c-2,2 -5,4 -8,4 -3,0 -6,-1 -8,-3 -2,-2 -3,-5 -3,-8 0,-3 1,-5 3,-7 2,-2 5,-3 8,-3 3,0 5,0 7,2l-2 4c-1,-1 -2,-2 -3,-2 0,0 -1,0 -2,0 -2,0 -3,0 -4,1 -2,2 -2,3 -2,5 0,2 0,4 1,5 2,1 3,1 5,1 1,0 2,0 3,0l0 -6z"/>
    <path id="39" class="fil45" d="M328 547c0,1 1,2 3,2 1,0 2,-1 3,-2 0,-1 1,-2 1,-4l0 -11 4 0 0 11c0,3 -1,6 -2,7 -2,2 -4,3 -6,3 -3,0 -5,-1 -7,-3 -1,-1 -2,-4 -2,-7l0 -11 4 0 0 11c0,2 1,3 2,4z"/>
    <path id="40" class="fil45" d="M361 539c0,3 -2,5 -4,6l5 7 -6 0 -4 -6 -3 0 0 6 -5 0 0 -20 8 0c3,0 5,1 7,2 1,1 2,2 2,5zm-9 3c1,0 3,0 3,-1 1,0 1,-1 1,-2 0,-1 0,-2 -1,-2 -1,-1 -2,-1 -3,-1l-3 0 0 6 3 0z"/>
    <polygon id="41" class="fil45" points="365,532 370,532 370,552 365,552 "/>
    <path id="42" class="fil45" d="M382 532c4,0 6,1 8,3 2,1 3,4 3,7 0,3 -1,6 -3,8 -1,1 -4,2 -8,2l-7 0 0 -20 7 0zm0 16c2,0 4,0 5,-1 1,-1 2,-3 2,-5 0,-2 -1,-3 -2,-4 -1,-2 -3,-2 -5,-2l-3 0 0 12 3 0z"/>
    <path id="43" class="fil45" d="M411 552l-2 -4 -8 0 -2 4 -5 0 9 -20 4 0 9 20 -5 0zm-6 -14l-3 6 6 0 -3 -6z"/>
    <path id="44" class="fil45" d="M426 532c3,0 6,1 8,3 2,1 3,4 3,7 0,3 -1,6 -3,8 -2,1 -5,2 -9,2l-7 0 0 -20 8 0zm0 16c2,0 3,0 5,-1 1,-1 1,-3 1,-5 0,-2 0,-3 -1,-4 -2,-2 -3,-2 -6,-2l-2 0 0 12 3 0z"/>
   </g>
  </g>
  <polygon class="fil46" points="0,0 600,0 600,600 0,600 "/>
  <g>
   <rect class="fil47" transform="matrix(-0.707107 -0.707107 -0.883889 0.883889 451.185 263.453)" width="63.5362" height="196.837"/>
   <rect class="fil48" transform="matrix(-0.707107 0.707107 0.530333 0.530333 217.742 288.119)" width="63.5362" height="196.837"/>
   <polygon class="fil49" points="277,348 232,393 277,437 322,393 "/>
  </g>
 </g>
</svg>
