<svg width="50" height="50" viewBox="0 0 50 50" fill="none" xmlns="http://www.w3.org/2000/svg">
<circle cx="25" cy="25" r="24" stroke="#246A73" stroke-width="2"/>
<path d="M36.25 15.5625C36.25 14.5625 35.4375 13.75 34.4375 13.75H15.5625C14.5625 13.75 13.75 14.5625 13.75 15.5625C13.75 16 13.9125 16.4375 14.2125 16.7625L23.75 27.5V33.75H18.75C18.0625 33.75 17.5 34.3125 17.5 35C17.5 35.6875 18.0625 36.25 18.75 36.25H31.25C31.9375 36.25 32.5 35.6875 32.5 35C32.5 34.3125 31.9375 33.75 31.25 33.75H26.25V27.5L35.7875 16.7625C36.0875 16.4375 36.25 16 36.25 15.5625ZM19.2875 18.75L17.075 16.25H32.9375L30.7125 18.75H19.2875Z" fill="#FE967C"/>
</svg>
