<svg width="50" height="50" viewBox="0 0 50 50" fill="none" xmlns="http://www.w3.org/2000/svg">
<circle cx="25" cy="25" r="24" stroke="#246A73" stroke-width="2"/>
<path d="M18.8182 13.1V21.8164C18.2322 21.6727 17.6257 21.6309 17.0255 21.6927C16.16 21.9091 15.2946 23.1455 14.46 23.4546C14.0165 21.4897 14.1982 19.4353 14.9796 17.5788C15.761 15.7222 17.1031 14.1563 18.8182 13.1ZM25.9582 11.1837L30.44 18.6637C30.825 18.2429 31.3006 17.9152 31.831 17.7055C32.6655 17.4891 33.9946 18.1073 34.9219 17.9837C34.3332 16.0513 33.1499 14.3539 31.5406 13.133C29.9312 11.9121 27.9777 11.2299 25.9582 11.1837ZM11.0415 38.9091H38.8288C36.2473 36.463 32.8788 35.0165 29.3273 34.8291L25.2164 19.56C26.6382 19.4364 28.3691 19.7455 29.1419 19.5291L24.1655 11.2146C23.5179 11.2705 22.8765 11.3843 22.2491 11.5546C21.5964 11.7214 20.9641 11.9598 20.3637 12.2655V21.8473C21.1364 21.6 22.4655 20.5491 23.7019 19.9927L27.6273 34.6746C26.8237 34.6127 25.9582 34.5818 25.031 34.5818C14.151 34.5818 11.0415 38.9091 11.0415 38.9091Z" fill="#FE967C"/>
</svg>
