<svg width="50" height="50" viewBox="0 0 50 50" fill="none" xmlns="http://www.w3.org/2000/svg">
<circle cx="25" cy="25" r="24" stroke="#246A73" stroke-width="2"/>
<path d="M24.5 33.7651L16.7857 24.259M24.5 44.4594V25.4473V44.4594ZM24.5 26.6355V33.7651V26.6355ZM24.5 26.6355C24.5 24.1144 23.6872 21.6965 22.2405 19.9138C20.7938 18.131 18.8317 17.1295 16.7857 17.1295H11V24.259C11 26.7802 11.8128 29.1981 13.2595 30.9808C14.7062 32.7635 16.6683 33.7651 18.7143 33.7651H24.5V26.6355ZM24.5 26.6355H30.2857C32.3317 26.6355 34.2938 25.634 35.7405 23.8513C37.1872 22.0686 38 19.6507 38 17.1295V10H32.2143C30.1683 10 28.2062 11.0015 26.7595 12.7843C25.3128 14.567 24.5 16.9849 24.5 19.506V26.6355ZM24.5 26.6355L32.2143 17.1295L24.5 26.6355Z" stroke="#FE967C" stroke-width="2"/>
</svg>
