<svg width="50" height="50" viewBox="0 0 50 50" fill="none" xmlns="http://www.w3.org/2000/svg">
<circle cx="25" cy="25" r="24" stroke="#246A73" stroke-width="2"/>
<g clip-path="url(#clip0)">
<path d="M32 13.85V35.1C32 35.4187 31.9203 35.7021 31.7609 35.95C31.6193 36.2156 31.4156 36.4193 31.15 36.5609C30.9021 36.7203 30.6188 36.8 30.3 36.8C29.9813 36.8 29.6979 36.7203 29.45 36.5609C29.1932 36.4104 28.9896 36.2068 28.8391 35.95C28.6797 35.7021 28.6 35.4187 28.6 35.1V28.3H25.625C25.5099 28.3 25.4125 28.2557 25.3328 28.1672C25.1646 27.999 25.1823 27.357 25.3859 26.2414C25.4214 26.02 25.49 25.5707 25.5918 24.8934C25.6936 24.216 25.7888 23.5829 25.8773 22.9941C25.9659 22.4053 26.0898 21.6904 26.2492 20.8492C26.4086 20.0081 26.5724 19.2488 26.7406 18.5715C26.9089 17.8941 27.1191 17.1947 27.3715 16.473C27.6238 15.7514 27.8872 15.1493 28.1617 14.6668C28.4362 14.1842 28.7594 13.7858 29.1313 13.4715C29.5031 13.1572 29.8927 13 30.3 13H31.15C31.3802 13 31.5794 13.0841 31.7477 13.2523C31.9159 13.4206 32 13.6198 32 13.85ZM23.5 13.85V22.35C23.5 22.6865 23.4646 22.9742 23.3938 23.2133C23.3229 23.4523 23.2388 23.6405 23.1414 23.7777C23.044 23.915 22.9023 24.0367 22.7164 24.143C22.5305 24.2492 22.3667 24.3245 22.225 24.3687C22.0833 24.413 21.8775 24.4728 21.6074 24.548C21.3374 24.6233 21.1182 24.6919 20.95 24.7539V35.1C20.95 35.4187 20.8703 35.7021 20.7109 35.95C20.5604 36.2068 20.3568 36.4104 20.1 36.5609C19.8432 36.7203 19.5599 36.8 19.25 36.8C18.9313 36.8 18.6479 36.7203 18.4 36.5609C18.1432 36.4104 17.9396 36.2068 17.7891 35.95C17.6297 35.7021 17.55 35.4187 17.55 35.1V24.7539C17.3818 24.6919 17.1626 24.6233 16.8926 24.548C16.6225 24.4728 16.4167 24.413 16.275 24.3687C16.1333 24.3245 15.9695 24.2492 15.7836 24.143C15.5977 24.0367 15.456 23.915 15.3586 23.7777C15.2612 23.6405 15.1771 23.4523 15.1063 23.2133C15.0354 22.9742 15 22.6865 15 22.35V13.85C15.0177 13.6021 15.1018 13.4029 15.2523 13.2523C15.4029 13.1018 15.6021 13.0177 15.85 13C16.0979 13.0177 16.2971 13.1018 16.4477 13.2523C16.6159 13.4206 16.7 13.6198 16.7 13.85V19.375C16.7 19.6052 16.7841 19.8044 16.9523 19.9727C17.1206 20.1409 17.3198 20.225 17.55 20.225C17.7802 20.225 17.9794 20.1409 18.1477 19.9727C18.3159 19.8044 18.4 19.6052 18.4 19.375V13.85C18.4177 13.6021 18.5018 13.4029 18.6523 13.2523C18.8029 13.1018 19.0021 13.0177 19.25 13C19.4979 13.0177 19.6971 13.1018 19.8477 13.2523C19.9982 13.4029 20.0823 13.6021 20.1 13.85V19.375C20.1 19.6052 20.1841 19.8044 20.3523 19.9727C20.5206 20.1409 20.7198 20.225 20.95 20.225C21.1802 20.225 21.3794 20.1409 21.5477 19.9727C21.7159 19.8044 21.8 19.6052 21.8 19.375V13.85C21.8177 13.6021 21.9018 13.4029 22.0523 13.2523C22.2029 13.1018 22.4021 13.0177 22.65 13C22.8979 13.0177 23.0971 13.1018 23.2477 13.2523C23.3982 13.4029 23.4823 13.6021 23.5 13.85Z" fill="#FE967C"/>
</g>
<defs>
<clipPath id="clip0">
<rect width="17" height="23.8" fill="white" transform="translate(15 13)"/>
</clipPath>
</defs>
</svg>
